<?xml version="1.0" encoding="UTF-8" standalone="no"?>
<!-- Created with Inkscape (http://www.inkscape.org/) -->

<svg
   width="100.08905mm"
   height="100.08906mm"
   viewBox="0 0 100.08905 100.08906"
   version="1.1"
   id="svg1"
   xmlns:xlink="http://www.w3.org/1999/xlink"
   xmlns="http://www.w3.org/2000/svg"
   xmlns:svg="http://www.w3.org/2000/svg">
  <defs
     id="defs1">
    <linearGradient
       id="linearGradient19">
      <stop
         style="stop-color:#f3f4f4;stop-opacity:1;"
         offset="0"
         id="stop19" />
      <stop
         style="stop-color:#7edef4;stop-opacity:0;"
         offset="1"
         id="stop20" />
    </linearGradient>
    <rect
       x="280.73413"
       y="317.46252"
       width="40.299206"
       height="33.49765"
       id="rect9" />
    <linearGradient
       xlink:href="#linearGradient19"
       id="linearGradient20"
       x1="280.65234"
       y1="325.57556"
       x2="294.94873"
       y2="325.43399"
       gradientUnits="userSpaceOnUse" />
  </defs>
  <g
     id="layer1"
     transform="translate(-0.04282616,0.08309985)">
    <path
       style="fill:#1d546d;fill-opacity:1;fill-rule:nonzero;stroke-width:0.264583"
       id="rect8"
       width="32.392399"
       height="32.392399"
       x="64.3349"
       y="74.09761"
       d="m 71.263274,74.09761 h 18.535651 c 3.838319,0 6.928374,3.090055 6.928374,6.928374 v 18.535651 c 0,3.838315 -3.090055,6.928375 -6.928374,6.928375 H 71.263274 c -3.838319,0 -6.928374,-3.09006 -6.928374,-6.928375 V 81.025984 c 0,-3.838319 3.090055,-6.928374 6.928374,-6.928374 z"
       ry="6.9283738"
       transform="matrix(3.0898933,0,0,3.0898933,-198.74515,-229.03681)" />
    <text
       xml:space="preserve"
       transform="matrix(5.6666543,0,0,5.3970128,-1580.6118,-1705.0518)"
       id="text9"
       style="font-style:normal;font-variant:normal;font-weight:normal;font-stretch:normal;font-size:12px;font-family:'Bauhaus 93';-inkscape-font-specification:'Bauhaus 93, Normal';font-variant-ligatures:normal;font-variant-caps:normal;font-variant-numeric:normal;font-variant-east-asian:normal;text-align:start;writing-mode:lr-tb;direction:ltr;white-space:pre;shape-inside:url(#rect9);display:inline;fill:url(#linearGradient20);fill-opacity:1"><tspan
         x="280.73438"
         y="328.49352"
         id="tspan1">Jtp</tspan></text>
  </g>
</svg>
